<?xml version="1.0" encoding="UTF-8" standalone="no"?> <svg id="Layer_1" data-name="Layer 1" xmlns="http://www.w3.org/2000/svg" viewBox="0 0 64 64"><title>management-work-manage-control-administration</title><path d="M29,49.75507V45.24481l-2.9364-.97229a10.96219,10.96219,0,0,0-.81152-1.95495l1.24731-2.62641a13.56079,13.56079,0,0,0-3.19055-3.19055l-2.62641,1.24731a10.97214,10.97214,0,0,0-1.955-.81152L17.75519,34H13.24481l-.97229,2.9364-1.95477.81146L7.69122,36.50049A13.55828,13.55828,0,0,0,4.50073,39.691L5.748,42.31757,4.9364,44.27252,2,45.24481v4.51026l2.9364.97222.81152,1.955L4.50055,55.30865a13.5589,13.5589,0,0,0,3.19061,3.19062L10.31757,57.252a10.97868,10.97868,0,0,0,1.955.81159L13.24481,61h4.51038l.97229-2.9364a10.97214,10.97214,0,0,0,1.955-.81152l2.62641,1.24725a13.55665,13.55665,0,0,0,3.19043-3.19049L25.252,52.68237a10.96228,10.96228,0,0,0,.81159-1.955ZM15.5,55A7.5,7.5,0,1,1,23,47.5,7.5,7.5,0,0,1,15.5,55Z"/><path d="M62,49.75507V45.24481l-2.9364-.97229a10.96219,10.96219,0,0,0-.81152-1.95495l1.24731-2.62641a13.56079,13.56079,0,0,0-3.19055-3.19055l-2.62641,1.24731a10.97214,10.97214,0,0,0-1.95495-.81152L50.75519,34H46.24481l-.97229,2.9364-1.95477.81146-2.62653-1.24737A13.55828,13.55828,0,0,0,37.50073,39.691L38.748,42.31757l-.81159,1.95495L35,45.24481v4.51026l2.9364.97222.81152,1.955-1.24737,2.62634a13.5589,13.5589,0,0,0,3.19061,3.19062L43.31757,57.252a10.97868,10.97868,0,0,0,1.95495.81159L46.24481,61h4.51038l.97229-2.9364a10.97214,10.97214,0,0,0,1.95495-.81152l2.62641,1.24725a13.55665,13.55665,0,0,0,3.19043-3.19049L58.252,52.68237a10.96228,10.96228,0,0,0,.81159-1.955ZM48.5,55A7.5,7.5,0,1,1,56,47.5,7.5,7.5,0,0,1,48.5,55Z"/><path d="M16.25,52H13V50h3.25a.75.75,0,0,0,0-1.5h-1.5a2.75,2.75,0,0,1,0-5.5H18v2H14.75a.75.75,0,0,0,0,1.5h1.5a2.75,2.75,0,0,1,0,5.5Z"/><path d="M52,49H48a1,1,0,0,1-1-1V43h2v4h3Z"/><rect x="50" y="17" width="2" height="2"/><rect x="54" y="17" width="2" height="2"/><rect x="54" y="21" width="2" height="2"/><rect x="54" y="25" width="2" height="2"/><rect x="54" y="29" width="2" height="2"/><rect x="12" y="17" width="2" height="2"/><rect x="8" y="17" width="2" height="2"/><rect x="8" y="21" width="2" height="2"/><rect x="8" y="25" width="2" height="2"/><rect x="8" y="29" width="2" height="2"/><rect x="31" y="60" width="2" height="2"/><rect x="27" y="60" width="2" height="2"/><rect x="35" y="60" width="2" height="2"/><path d="M47,19.50568V14.49426l-3.2627-1.08032a12.17487,12.17487,0,0,0-.90167-2.17224l1.38593-2.91815a15.06578,15.06578,0,0,0-3.545-3.545L37.7583,6.16437a12.18839,12.18839,0,0,0-2.17224-.90174L34.50574,2H29.4942L28.41388,5.26263l-2.17194.90162L23.32361,4.77832a15.06472,15.06472,0,0,0-3.545,3.54511l1.38587,2.91827-.90173,2.17224L17,14.49426v5.01142l3.2627,1.08026.90167,2.17218-1.386,2.91821a15.06629,15.06629,0,0,0,3.54511,3.54511l2.91821-1.38587,2.17224.90173L29.49426,32h5.01148l1.08032-3.2627a12.19184,12.19184,0,0,0,2.17224-.90167l2.91815,1.38587a15.06415,15.06415,0,0,0,3.545-3.545l-1.38587-2.91833A12.17266,12.17266,0,0,0,43.7373,20.586ZM36,24.31061V19.01129A2.01128,2.01128,0,0,0,33.98871,17a2.49112,2.49112,0,0,0-1.34949-3.92078A2.50456,2.50456,0,0,0,29.5,15.5a2.47753,2.47753,0,0,0,.51129,1.5A2.01128,2.01128,0,0,0,28,19.01129v5.29932a8.33331,8.33331,0,1,1,8,0Z"/></svg>