<?xml version="1.0" encoding="UTF-8" standalone="no"?> <svg width="43" height="43" viewBox="0 0 43 43" xmlns="http://www.w3.org/2000/svg">
<rect x="0.333435" y="0.581177" width="42" height="42" rx="21"/>
<path d="M25.7434 32.0812H25.5334C24.9034 32.0812 24.4834 31.6612 24.4834 31.0312C24.4834 30.4012 24.9034 29.9812 25.5334 29.9812H25.7434C27.3184 29.9812 28.1584 29.9812 28.5784 29.7712C28.9984 29.5612 29.3134 29.2462 29.5234 28.8262C29.7334 28.4062 29.7334 27.5662 29.7334 25.9912V25.7812C29.7334 25.1512 30.1534 24.7312 30.7834 24.7312C31.4134 24.7312 31.8334 25.1512 31.8334 25.7812V25.9912C31.8334 27.8812 31.8334 28.9312 31.4134 29.7712C30.9934 30.6112 30.3634 31.2412 29.6284 31.5562C28.6834 32.0812 27.6334 32.0812 25.7434 32.0812ZM17.1334 32.0812H16.9234C15.0334 32.0812 13.9834 32.0812 13.1434 31.6612C12.3034 31.2412 11.6734 30.6112 11.3584 29.8762C10.8334 28.9312 10.8334 27.8812 10.8334 25.9912V25.7812C10.8334 25.1512 11.2534 24.7312 11.8834 24.7312C12.5134 24.7312 12.9334 25.1512 12.9334 25.7812V25.9912C12.9334 27.5662 12.9334 28.4062 13.1434 28.8262C13.3534 29.2462 13.6684 29.5612 14.0884 29.7712C14.5084 29.9812 15.3484 29.9812 16.9234 29.9812H17.1334C17.7634 29.9812 18.1834 30.4012 18.1834 31.0312C18.1834 31.6612 17.7634 32.0812 17.1334 32.0812ZM21.3334 27.3562C19.8634 27.3562 18.2884 26.8312 17.1334 25.6762C16.7134 25.2562 16.7134 24.6262 17.1334 24.2062C17.5534 23.7862 18.1834 23.7862 18.6034 24.2062C20.0734 25.6762 22.4884 25.6762 23.9584 24.2062C24.3784 23.7862 25.0084 23.7862 25.4284 24.2062C25.8484 24.6262 25.8484 25.2562 25.4284 25.6762C24.2734 26.8312 22.8034 27.3562 21.3334 27.3562ZM20.2834 23.2612C19.6534 23.2612 19.2334 22.8412 19.2334 22.2112C19.2334 21.5812 19.6534 21.1612 20.2834 21.1612C20.4934 21.1612 20.8084 20.8462 20.8084 20.6362V17.3812C20.8084 16.7512 21.2284 16.3312 21.8584 16.3312C22.4884 16.3312 22.9084 16.7512 22.9084 17.3812V20.6362C22.9084 22.1062 21.7534 23.2612 20.2834 23.2612ZM26.0584 20.0062C25.4284 20.0062 25.0084 19.5862 25.0084 18.9562V17.3812C25.0084 16.7512 25.4284 16.3312 26.0584 16.3312C26.6884 16.3312 27.1084 16.7512 27.1084 17.3812V18.9562C27.1084 19.5862 26.6884 20.0062 26.0584 20.0062ZM16.6084 20.0062C15.9784 20.0062 15.5584 19.5862 15.5584 18.9562V17.3812C15.5584 16.7512 15.9784 16.3312 16.6084 16.3312C17.2384 16.3312 17.6584 16.7512 17.6584 17.3812V18.9562C17.6584 19.5862 17.2384 20.0062 16.6084 20.0062ZM30.7834 18.4312C30.1534 18.4312 29.7334 18.0112 29.7334 17.3812V17.1712C29.7334 15.5962 29.7334 14.7562 29.5234 14.3362C29.3134 13.9162 28.9984 13.6012 28.5784 13.3912C28.1584 13.1812 27.3184 13.1812 25.7434 13.1812H25.5334C24.9034 13.1812 24.4834 12.7612 24.4834 12.1312C24.4834 11.5012 24.9034 11.0812 25.5334 11.0812H25.7434C27.6334 11.0812 28.6834 11.0812 29.5234 11.5012C30.3634 11.9212 30.9934 12.5512 31.3084 13.2862C31.8334 14.2312 31.8334 15.2812 31.8334 17.1712V17.3812C31.8334 18.0112 31.4134 18.4312 30.7834 18.4312ZM11.8834 18.4312C11.2534 18.4312 10.8334 18.0112 10.8334 17.3812V17.1712C10.8334 15.2812 10.8334 14.2312 11.2534 13.3912C11.6734 12.5512 12.3034 11.9212 13.0384 11.6062C13.9834 11.0812 15.0334 11.0812 16.9234 11.0812H17.1334C17.7634 11.0812 18.1834 11.5012 18.1834 12.1312C18.1834 12.7612 17.7634 13.1812 17.1334 13.1812H16.9234C15.3484 13.1812 14.5084 13.1812 14.0884 13.3912C13.6684 13.6012 13.3534 13.9162 13.1434 14.3362C12.9334 14.7562 12.9334 15.5962 12.9334 17.1712V17.3812C12.9334 18.0112 12.5134 18.4312 11.8834 18.4312Z" fill="currentColor"/>
</svg>
