<svg xmlns="http://www.w3.org/2000/svg" viewBox="0 0 64 64"><defs><style>.cls-1{fill:#979faf;}.cls-2{fill:#adb2c7;}.cls-3{fill:#8dd5f6;}.cls-4{fill:#dfe1ea;}.cls-5{fill:#aedff7;}.cls-6{fill:#f6fafd;}.cls-7{fill:#7e8596;}.cls-8{fill:#0096cf;}.cls-9{fill:#afb4c8;}.cls-10{fill:#ff636e;}.cls-11{fill:#636978;}.cls-12{fill:#ff475a;}.cls-13{fill:#f03049;}</style></defs><title>100-Bug. Fix</title><g id="_100-Bug._Fix" data-name="100-Bug. Fix"><rect class="cls-1" x="19" y="59" width="26" height="3"/><polygon class="cls-2" points="40 50 45 59 19 59 24 50 40 50"/><path class="cls-3" d="M63,4V42H1V4A2.006,2.006,0,0,1,3,2H61A2.006,2.006,0,0,1,63,4Z"/><path class="cls-4" d="M63,42v6a2.006,2.006,0,0,1-2,2H3a2.006,2.006,0,0,1-2-2V42Z"/><path class="cls-5" d="M61,2H3A2.006,2.006,0,0,0,1,4V18.844A26.743,26.743,0,0,0,9.2,20c7.6,0,7.6-2,15.2-2s7.6,2,15.2,2,7.6-2,15.2-2A26.787,26.787,0,0,1,63,19.157V4A2.006,2.006,0,0,0,61,2Z"/><path class="cls-6" d="M61,2H3A2.006,2.006,0,0,0,1,4v7.844A26.743,26.743,0,0,0,9.2,13c7.6,0,7.6-2,15.2-2s7.6,2,15.2,2,7.6-2,15.2-2A26.787,26.787,0,0,1,63,12.157V4A2.006,2.006,0,0,0,61,2Z"/><path class="cls-7" d="M24,50l-1.832,3.3A25.289,25.289,0,0,0,28.6,54c6.6,0,7.475-1.507,12.57-1.9L40,50Z"/><circle class="cls-8" cx="25" cy="12" r="3"/><path class="cls-8" d="M29.99,16.03A11.59,11.59,0,0,0,25,15a11.59,11.59,0,0,0-4.99,1.03C15.84,18,14,22.62,14,28c0,0,3.89,7.13,8.02,9.9A5.458,5.458,0,0,0,25,39a5.458,5.458,0,0,0,2.98-1.1C32.11,35.13,36,28,36,28,36,22.62,34.16,18,29.99,16.03Z"/><path class="cls-8" d="M61,21l1,2-1,2-4.32.58a10.8,10.8,0,0,1-1.3,3.15l2.64,3.46-.71,2.12-2.12.71-3.46-2.64a10.8,10.8,0,0,1-3.15,1.3L48,38l-2,1-2-1-.58-4.32a10.8,10.8,0,0,1-3.15-1.3l-3.46,2.64-2.12-.71-.71-2.12,2.64-3.46a10.8,10.8,0,0,1-1.3-3.15L31,25l-1-2,1-2,4.32-.58a10.8,10.8,0,0,1,1.3-3.15l-2.64-3.46.71-2.12,2.12-.71,3.46,2.64a10.8,10.8,0,0,1,3.15-1.3L44,8l2-1,2,1,.58,4.32a10.8,10.8,0,0,1,3.15,1.3l3.46-2.64,2.12.71.71,2.12-2.64,3.46a10.8,10.8,0,0,1,1.3,3.15Zm-9,2a6,6,0,1,0-6,6A6,6,0,0,0,52,23Z"/><path class="cls-4" d="M58,20l1,2-1,2-4.32.58a10.8,10.8,0,0,1-1.3,3.15l2.64,3.46-.71,2.12-2.12.71-3.46-2.64a10.8,10.8,0,0,1-3.15,1.3L45,37l-2,1-2-1-.58-4.32a10.8,10.8,0,0,1-3.15-1.3l-3.46,2.64-2.12-.71-.71-2.12,2.64-3.46a10.8,10.8,0,0,1-1.3-3.15L28,24l-1-2,1-2,4.32-.58a10.8,10.8,0,0,1,1.3-3.15l-2.64-3.46.71-2.12,2.12-.71,3.46,2.64a10.8,10.8,0,0,1,3.15-1.3L41,7l2-1,2,1,.58,4.32a10.8,10.8,0,0,1,3.15,1.3l3.46-2.64,2.12.71.71,2.12-2.64,3.46a10.8,10.8,0,0,1,1.3,3.15Zm-9,2a6,6,0,1,0-6,6A6,6,0,0,0,49,22Z"/><circle class="cls-7" cx="21" cy="11" r="3"/><path class="cls-9" d="M25.99,15.03C25.9,15.37,24.81,19,21,19s-4.9-3.63-4.99-3.97A11.59,11.59,0,0,1,21,14,11.59,11.59,0,0,1,25.99,15.03Z"/><path class="cls-10" d="M25.99,15.03C30.16,17,32,21.62,32,27c0,0-3.89,7.13-8.02,9.9L21,19C24.81,19,25.9,15.37,25.99,15.03Z"/><path class="cls-7" d="M21,19l2.98,17.9A5.458,5.458,0,0,1,21,38a5.458,5.458,0,0,1-2.98-1.1Z"/><path class="cls-10" d="M21,19,18.02,36.9C13.89,34.13,10,27,10,27c0-5.38,1.84-10,6.01-11.97C16.1,15.37,17.19,19,21,19Z"/><path class="cls-9" d="M21,8a2.986,2.986,0,0,0-2.839,2.07c.671-.042,1.4-.07,2.233-.07a30.939,30.939,0,0,1,3.477.176A2.985,2.985,0,0,0,21,8Z"/><path class="cls-11" d="M18.666,33.021a23.994,23.994,0,0,1,4.766.589L21,19Z"/><path class="cls-12" d="M31.2,21.364a27.746,27.746,0,0,0-4.8-.364,27.357,27.357,0,0,0-4.995.4l.974,5.848A29.449,29.449,0,0,1,26.394,27a26.726,26.726,0,0,1,5.345.461C31.9,27.177,32,27,32,27A18.627,18.627,0,0,0,31.2,21.364Z"/><path class="cls-12" d="M11.2,23c-.289,0-.541-.01-.808-.015A20.058,20.058,0,0,0,10,27s.45.819,1.194,2h0a27.18,27.18,0,0,0,8.339-1.192l1.039-6.245C17.875,22.155,16.141,23,11.2,23Z"/><path class="cls-13" d="M26.394,21a27.746,27.746,0,0,1,4.8.364A10.042,10.042,0,0,0,25.99,15.03C25.9,15.37,24.81,19,21,19l.4,2.4A27.357,27.357,0,0,1,26.394,21Z"/><path class="cls-13" d="M20.573,21.563,21,19c-3.81,0-4.9-3.63-4.99-3.97-3.083,1.457-4.89,4.365-5.623,7.955.267,0,.519.015.808.015C16.141,23,17.875,22.155,20.573,21.563Z"/><path d="M61,1H3A3,3,0,0,0,0,4V48a3,3,0,0,0,3,3H22.3l-4.175,7.515A.991.991,0,0,0,18,59v2H16v2H48V61H46V59a.991.991,0,0,0-.126-.485L41.7,51H61a3,3,0,0,0,3-3V4A3,3,0,0,0,61,1ZM3,3H61a1,1,0,0,1,1,1V41H2V4A1,1,0,0,1,3,3ZM20,61V60H44v1Zm23.3-3H20.7l3.889-7H39.412ZM61,49H3a1,1,0,0,1-1-1V43H62v5A1,1,0,0,1,61,49Z"/><path d="M6.381,24.928c1.759-.562,2.481.176,2.68.453C9.025,25.908,9,26.445,9,27a1,1,0,0,0,.122.479,47.637,47.637,0,0,0,2.849,4.47A4.233,4.233,0,0,1,8,35v2a6,6,0,0,0,5.351-3.244,20.087,20.087,0,0,0,4.106,3.972A6.408,6.408,0,0,0,21,39a6.406,6.406,0,0,0,3.54-1.271,20.013,20.013,0,0,0,4.091-3.952A6,6,0,0,0,33.97,37V35a4.219,4.219,0,0,1-3.961-3.024,47.779,47.779,0,0,0,2.869-4.5A1,1,0,0,0,33,27c0-.556-.025-1.093-.061-1.621.167-.24.874-1.031,2.68-.451l1.934.967.894-1.79-2-1a.876.876,0,0,0-.131-.053,4.775,4.775,0,0,0-3.657.061A13.831,13.831,0,0,0,30.3,17.342,4.017,4.017,0,0,1,33.97,15V13A5.919,5.919,0,0,0,28.9,15.789a10.1,10.1,0,0,0-2.48-1.663,11.341,11.341,0,0,0-2.214-.754,3.925,3.925,0,0,0,.443-4A7.316,7.316,0,0,0,27.9,6.447l-1.79-.894A5.9,5.9,0,0,1,23.351,7.78a3.934,3.934,0,0,0-4.7,0A5.864,5.864,0,0,1,15.9,5.553l-1.79.894a7.316,7.316,0,0,0,3.249,2.925,3.925,3.925,0,0,0,.443,4,11.341,11.341,0,0,0-2.214.754,10.143,10.143,0,0,0-2.5,1.68A5.923,5.923,0,0,0,8,13v2a4.024,4.024,0,0,1,3.678,2.365,13.859,13.859,0,0,0-2.337,5.748,4.789,4.789,0,0,0-3.657-.061.876.876,0,0,0-.131.053l-2,1,.894,1.79ZM19.114,36.4,21,25.088,22.884,36.4A3.93,3.93,0,0,1,21,37,3.935,3.935,0,0,1,19.114,36.4ZM21,18a4.043,4.043,0,0,1-3.7-2.408A11.168,11.168,0,0,1,21,15a11.168,11.168,0,0,1,3.7.592A4.043,4.043,0,0,1,21,18Zm7.01-.278-.01.036.057.014c2.412,2.6,2.911,6.458,2.941,8.969a37.532,37.532,0,0,1-6.306,8.331l-2.53-15.181a6.1,6.1,0,0,0,4.344-3.426A8.085,8.085,0,0,1,28.01,17.722ZM19,11a2,2,0,1,1,2,2A2,2,0,0,1,19,11Zm-5.048,6.762.018,0,0-.011a8.044,8.044,0,0,1,1.527-1.282,6.1,6.1,0,0,0,4.344,3.426L17.31,35.074A37.607,37.607,0,0,1,11,26.741C11.032,24.226,11.533,20.366,13.952,17.762Z"/><path d="M33.621,11.1l3.039,2.323a1,1,0,0,0,1.13.059,9.911,9.911,0,0,1,2.869-1.19,1,1,0,0,0,.757-.841l.505-3.79L43,7.118l1.079.539.505,3.79a1,1,0,0,0,.757.841,9.911,9.911,0,0,1,2.869,1.19,1,1,0,0,0,1.13-.059L52.379,11.1l1.143.382.382,1.143L51.581,15.66a1,1,0,0,0-.059,1.13,9.911,9.911,0,0,1,1.19,2.869,1,1,0,0,0,.841.757l3.79.5L57.882,22l-.539,1.079-3.79.5a1,1,0,0,0-.841.757,9.911,9.911,0,0,1-1.19,2.869,1,1,0,0,0,.059,1.13L53.9,31.379l-.382,1.143-1.143.382L49.34,30.581a1,1,0,0,0-1.13-.059,9.911,9.911,0,0,1-2.869,1.19,1,1,0,0,0-.757.841l-.505,3.79L43,36.882l-1.079-.539-.505-3.79a1,1,0,0,0-.757-.841,9.911,9.911,0,0,1-2.869-1.19l-1.045,1.706a11.894,11.894,0,0,0,2.776,1.247l.488,3.657a1,1,0,0,0,.544.763l2,1a1,1,0,0,0,.894,0l2-1a1,1,0,0,0,.544-.763l.488-3.657a11.867,11.867,0,0,0,2.174-.9l2.932,2.241a1,1,0,0,0,.924.155l2.121-.707a.994.994,0,0,0,.632-.632l.707-2.121a1,1,0,0,0-.155-.924l-2.241-2.932a11.867,11.867,0,0,0,.9-2.174l3.657-.488a1,1,0,0,0,.763-.544l1-2a1,1,0,0,0,0-.894l-1-2a1,1,0,0,0-.763-.544l-3.657-.488a11.867,11.867,0,0,0-.9-2.174l2.241-2.932a1,1,0,0,0,.155-.924l-.707-2.121a.994.994,0,0,0-.632-.632l-2.121-.707a.984.984,0,0,0-.924.155l-2.932,2.241a11.867,11.867,0,0,0-2.174-.9l-.488-3.657a1,1,0,0,0-.544-.763l-2-1a1,1,0,0,0-.894,0l-2,1a1,1,0,0,0-.544.763l-.488,3.657a11.867,11.867,0,0,0-2.174.9L34.415,9.186a.985.985,0,0,0-.924-.155l-2.121.707.633,1.9Z"/><path d="M43,27a4.978,4.978,0,0,1-2.764-.833l-1.107,1.666A7,7,0,1,0,36,22h2a5,5,0,1,1,5,5Z"/></g></svg>