<?xml version="1.0" encoding="UTF-8" standalone="no"?> <svg width="43" height="43" viewBox="0 0 43 43" fill="none" xmlns="http://www.w3.org/2000/svg">
<rect x="0.333435" y="0.581177" width="42" height="42" rx="21" fill="black"/>
<path d="M25.0668 33.2479H17.6001C15.5001 33.2479 14.3334 33.2479 13.4001 32.7812C12.4668 32.3146 11.7668 31.6146 11.4168 30.7979C10.8334 29.7479 10.8334 28.5812 10.8334 26.4812V24.8479C10.8334 22.7479 10.8334 21.5812 11.3001 20.6479C11.7668 19.7146 12.4668 19.0146 13.2834 18.6646C13.6334 18.4312 13.9834 18.3146 14.3334 18.1979V16.9146C14.3334 13.0646 17.4834 9.91455 21.3334 9.91455C25.1834 9.91455 28.3334 13.0646 28.3334 16.9146V18.1979C28.6834 18.3146 29.0334 18.4312 29.2668 18.5479C30.2001 19.0146 30.9001 19.7146 31.2501 20.5312C31.8334 21.5812 31.8334 22.7479 31.8334 24.8479V26.4812C31.8334 28.5812 31.8334 29.7479 31.3668 30.6812C30.9001 31.6146 30.2001 32.3146 29.3834 32.6646C28.3334 33.2479 27.1668 33.2479 25.0668 33.2479ZM17.6001 20.4146C15.8501 20.4146 14.9168 20.4146 14.4501 20.6479C13.9834 20.8812 13.6334 21.2312 13.4001 21.6979C13.1668 22.1646 13.1668 23.0979 13.1668 24.8479V26.4812C13.1668 28.2312 13.1668 29.1646 13.4001 29.6312C13.6334 30.0979 13.9834 30.4479 14.4501 30.6812C14.9168 30.9146 15.8501 30.9146 17.6001 30.9146H25.0668C26.8168 30.9146 27.7501 30.9146 28.2168 30.6812C28.6834 30.4479 29.0334 30.0979 29.2668 29.6312C29.5001 29.1646 29.5001 28.2312 29.5001 26.4812V24.8479C29.5001 23.0979 29.5001 22.1646 29.2668 21.6979C29.0334 21.2312 28.6834 20.8812 28.2168 20.6479C27.7501 20.4146 26.8168 20.4146 25.0668 20.4146H17.6001ZM17.6001 18.0812H25.0668C25.4168 18.0812 25.7668 18.0812 26.0001 18.0812V16.9146C26.0001 14.3479 23.9001 12.2479 21.3334 12.2479C18.7668 12.2479 16.6668 14.3479 16.6668 16.9146V18.0812C16.9001 18.0812 17.2501 18.0812 17.6001 18.0812ZM21.3334 27.9979C20.6334 27.9979 20.1668 27.5312 20.1668 26.8312V24.4979C20.1668 23.7979 20.6334 23.3312 21.3334 23.3312C22.0334 23.3312 22.5001 23.7979 22.5001 24.4979V26.8312C22.5001 27.5312 22.0334 27.9979 21.3334 27.9979Z" fill="white"/>
</svg>
