<?xml version="1.0" encoding="UTF-8" standalone="no"?> <svg width="43" height="43" viewBox="0 0 43 43" xmlns="http://www.w3.org/2000/svg">
<rect x="0.333435" y="0.581177" width="42" height="42" rx="21"/>
<path d="M16.0834 32.0812H13.5634C12.8284 32.0812 12.4084 32.0812 11.9884 31.8712C11.5684 31.6612 11.2534 31.3462 11.0434 30.9262C10.8334 30.5062 10.8334 30.0862 10.8334 29.3512V27.5662C10.8334 27.2512 10.8334 27.0412 10.9384 26.8312C10.9384 26.6212 11.0434 26.4112 11.1484 26.2012C11.2534 25.9912 11.4634 25.8862 11.6734 25.6762L17.0284 20.3212C17.1334 20.2162 17.2384 20.1112 17.3434 20.0062C17.3434 20.0062 17.3434 19.7962 17.2384 19.4812C17.1334 19.0612 17.1334 18.7462 17.1334 18.4312C17.1334 14.3362 20.3884 11.0812 24.4834 11.0812C28.5784 11.0812 31.8334 14.3362 31.8334 18.4312C31.8334 22.5262 28.5784 25.7812 24.4834 25.7812C24.1684 25.7812 23.8534 25.7812 23.5384 25.6762C23.2234 25.6762 23.1184 25.5712 22.9084 25.5712C22.9084 25.5712 22.8034 25.6762 22.6984 25.8862L21.0184 27.5662C20.8084 27.7762 20.5984 27.8812 20.2834 27.8812H19.2334V28.9312C19.2334 29.5612 18.8134 29.9812 18.1834 29.9812H17.1334V31.0312C17.1334 31.6612 16.7134 32.0812 16.0834 32.0812ZM24.4834 13.1812C21.5434 13.1812 19.2334 15.4912 19.2334 18.4312C19.2334 18.6412 19.2334 18.9562 19.2334 19.1662C19.3384 19.6912 19.3384 20.0062 19.3384 20.3212C19.3384 20.6362 19.2334 20.8462 19.1284 21.0562C19.0234 21.2662 18.8134 21.4762 18.4984 21.7912L13.1434 27.1462C13.0384 27.1462 12.9334 27.2512 12.9334 27.2512C12.9334 27.2512 12.9334 27.3562 12.9334 27.4612V29.2462C12.9334 29.6662 12.9334 29.9812 12.9334 29.9812C12.9334 29.9812 13.2484 29.9812 13.5634 29.9812H15.0334V28.9312C15.0334 28.3012 15.4534 27.8812 16.0834 27.8812H17.1334V26.8312C17.1334 26.2012 17.5534 25.7812 18.1834 25.7812H19.8634L21.2284 24.4162C21.5434 24.1012 21.7534 23.8912 21.9634 23.7862C22.1734 23.6812 22.3834 23.5762 22.6984 23.5762C23.0134 23.5762 23.2234 23.5762 23.8534 23.6812C24.0634 23.6812 24.2734 23.6812 24.5884 23.6812C27.5284 23.6812 29.8384 21.3712 29.8384 18.4312C29.8384 15.4912 27.4234 13.1812 24.4834 13.1812ZM26.5834 19.4812C25.9534 19.4812 25.5334 19.0612 25.5334 18.4312C25.5334 18.1162 25.4284 17.9062 25.2184 17.6962C25.0084 17.4862 24.7984 17.3812 24.4834 17.3812C23.8534 17.3812 23.4334 16.9612 23.4334 16.3312C23.4334 15.7012 23.8534 15.2812 24.4834 15.2812C25.3234 15.2812 26.1634 15.5962 26.6884 16.2262C27.3184 16.7512 27.6334 17.5912 27.6334 18.4312C27.6334 19.0612 27.2134 19.4812 26.5834 19.4812Z" fill="currentColor"/>
</svg>
