<?xml version="1.0" encoding="UTF-8" standalone="no"?> <svg id="Layer_1" data-name="Layer 1" xmlns="http://www.w3.org/2000/svg" viewBox="0 0 128 128"><defs><style>.cls-1{fill:#2d3e50;}.cls-2{fill:#1d75b8;}</style></defs><title>n</title><path class="cls-1" d="M26.971,69.64328a14.84908,14.84908,0,0,0,29.15175,0l2.26679-11.684A15.64151,15.64151,0,0,0,42.89322,40.20994H40.20061A15.64145,15.64145,0,0,0,24.70433,57.95929Z"/><path class="cls-1" d="M72.55791,91.81252,56.73219,86.192,41.54691,101.3772,26.36173,86.192,10.536,91.81252a4.41177,4.41177,0,0,0-2.83872,3.24L2.29063,120.49781H80.80329L75.39663,95.05253A4.41144,4.41144,0,0,0,72.55791,91.81252Z"/><path class="cls-2" d="M125.07874,29.4313a27.78368,27.78368,0,0,0-54.93992,6.2811c.01784,1.21331-.32121,27.229-.42822,35.79367a1.39572,1.39572,0,0,0,2.19468,1.16L88.10717,61.29985A27.7884,27.7884,0,0,0,125.07874,29.4313ZM99.63407,47.91722a2.48383,2.48383,0,0,1-1.74871.73159A2.42988,2.42988,0,0,1,95.4944,46.24a2.38757,2.38757,0,0,1,2.37312-2.3913,2.35588,2.35588,0,0,1,2.44455,2.31979A2.4388,2.4388,0,0,1,99.63407,47.91722Zm2.58723-13.54314-.74934.66025a3.61,3.61,0,0,0-1.53452,2.391c-.05359.80293-.1071,1.64153-.1071,2.56948a.53825.53825,0,0,1-.07143.37471c-.01775.01784-.08918.08918-.39255.07134-.19619-.01784-.39255-.01784-.58882-.01784H97.76043c-.58874,0-1.19548,0-1.76646.01784-.26761,0-.339-.07134-.339-.32121a12.77021,12.77021,0,0,1,.62458-5.29948,6.41824,6.41824,0,0,1,2.28394-2.44463,8.604,8.604,0,0,0,1.98057-1.802,2.86789,2.86789,0,0,0,.48181-3.10471A3.60628,3.60628,0,0,0,97.814,25.73786a3.83006,3.83006,0,0,0-3.74721,2.90835c-.17835.58891-.23186.62458-.4638.62458-.12493,0-.2677-.01784-.48181-.03567-.9992-.14285-1.99849-.2677-2.9977-.39255-.35688-.03567-.41047-.16069-.37471-.42822.39255-4.229,4.49655-6.44162,8.35068-6.44162a8.82556,8.82556,0,0,1,5.79912,1.99858,6.19359,6.19359,0,0,1,2.177,4.56789C106.05769,30.98366,104.04136,32.768,102.2213,34.37408Z"/></svg>